<?xml version="1.0" standalone="no"?>
<!DOCTYPE svg PUBLIC "-//W3C//DTD SVG 20010904//EN"
 "http://www.w3.org/TR/2001/REC-SVG-20010904/DTD/svg10.dtd">
<svg version="1.0" xmlns="http://www.w3.org/2000/svg"
 width="512.000000pt" height="512.000000pt" viewBox="0 0 512.000000 512.000000"
 preserveAspectRatio="xMidYMid meet">

<g transform="translate(0.000000,512.000000) scale(0.100000,-0.100000)"
fill="#000000" stroke="none">
<path d="M3162 4870 c-73 -43 -130 -80 -125 -83 110 -65 533 -307 540 -309 16
-5 285 154 276 163 -20 19 -531 309 -544 308 -8 0 -74 -36 -147 -79z"/>
<path d="M2993 4458 c4 -145 7 -772 7 -1394 l0 -1131 270 -157 c148 -86 272
-156 275 -156 3 0 5 627 5 1394 l0 1393 -270 157 c-148 86 -274 156 -281 156
-9 0 -11 -60 -6 -262z"/>
<path d="M3751 4483 l-134 -77 6 -1437 c6 -1343 5 -1438 -11 -1452 -9 -8 -267
-159 -572 -334 -909 -523 -881 -507 -899 -496 -14 9 -16 54 -19 397 -1 212 -6
386 -10 385 -4 0 -68 -35 -142 -78 l-135 -79 4 -568 c2 -313 5 -570 6 -572 2
-2 167 91 367 207 199 115 662 383 1028 594 l665 383 3 1200 c3 1167 -4 2004
-17 2004 -3 -1 -66 -35 -140 -77z"/>
<path d="M1400 1789 c-69 -39 -131 -76 -138 -83 -10 -9 44 -45 255 -167 147
-84 272 -154 279 -154 15 0 274 148 274 157 0 5 -533 318 -542 318 -2 0 -59
-32 -128 -71z"/>
<path d="M2570 1640 l-375 -217 2 -313 c1 -172 4 -314 6 -316 4 -4 1283 730
1300 746 10 9 18 3 -295 184 -130 75 -242 136 -250 135 -7 -1 -182 -99 -388
-219z"/>
<path d="M1210 1058 l0 -573 266 -155 c146 -85 269 -156 274 -158 6 -2 10 212
10 570 l0 573 -217 125 c-119 69 -243 140 -275 158 l-58 34 0 -574z"/>
</g>
</svg>
